<svg id="Capa_1" enable-background="new 0 0 512 512" height="512" viewBox="0 0 512 512" width="512" xmlns="http://www.w3.org/2000/svg"><g><g><circle cx="256" cy="70.13" r="9.092"/><ellipse cx="300.447" cy="70.13" rx="9.091" ry="9.092" transform="matrix(.998 -.071 .071 .998 -4.216 21.475)"/><ellipse cx="211.553" cy="70.13" rx="9.092" ry="9.091" transform="matrix(.099 -.995 .995 .099 120.918 273.743)"/><circle cx="256" cy="150.943" r="9.092"/><ellipse cx="300.447" cy="150.943" rx="9.091" ry="9.092" transform="matrix(.998 -.071 .071 .998 -9.944 21.678)"/><ellipse cx="211.553" cy="150.943" rx="9.092" ry="9.091" transform="matrix(.099 -.995 .995 .099 40.498 346.593)"/><path d="m269.132 114.577c0 5.013 4.078 9.092 9.091 9.092s9.091-4.078 9.091-9.092c0-5.013-4.078-9.091-9.091-9.091s-9.091 4.078-9.091 9.091z"/><path d="m313.579 114.577c0 5.013 4.078 9.092 9.091 9.092s9.092-4.078 9.092-9.092c0-5.013-4.078-9.091-9.092-9.091-5.013 0-9.091 4.078-9.091 9.091z"/><path d="m224.685 114.577c0 5.013 4.079 9.092 9.091 9.092s9.091-4.078 9.091-9.092c0-5.013-4.079-9.091-9.091-9.091s-9.091 4.078-9.091 9.091z"/><path d="m180.238 114.577c0 5.013 4.079 9.092 9.091 9.092 5.013 0 9.091-4.078 9.091-9.092 0-5.013-4.079-9.091-9.091-9.091-5.013 0-9.091 4.078-9.091 9.091z"/><path d="m46.467 256c0 13.048 10.615 23.663 23.663 23.663s23.662-10.615 23.662-23.663-10.615-23.663-23.663-23.663-23.662 10.615-23.662 23.663zm32.325 0c0 4.776-3.886 8.663-8.663 8.663s-8.663-3.887-8.663-8.663 3.886-8.663 8.663-8.663 8.663 3.887 8.663 8.663z"/><path d="m441.87 279.663c13.047 0 23.662-10.615 23.662-23.663s-10.615-23.663-23.662-23.663c-13.048 0-23.663 10.615-23.663 23.663s10.615 23.663 23.663 23.663zm0-32.326c4.776 0 8.662 3.887 8.662 8.663s-3.886 8.663-8.662 8.663-8.663-3.887-8.663-8.663 3.887-8.663 8.663-8.663z"/><path d="m441.87 187.89c-5.775 0-11.382.728-16.74 2.087v-63.987c0-4.143-3.357-7.5-7.5-7.5s-7.5 3.357-7.5 7.5v69.773c-21.608 11.432-36.37 34.137-36.37 60.237v12.299c-6.344-4.814-14.245-7.677-22.805-7.677h-189.91c-8.56 0-16.461 2.864-22.805 7.677v-12.299c0-26.099-14.763-48.804-36.37-60.236v-127.654c0-29.285 23.825-53.11 53.11-53.11h202.04c29.285 0 53.11 23.825 53.11 53.11v22.68c0 4.143 3.357 7.5 7.5 7.5s7.5-3.357 7.5-7.5v-22.68c0-37.557-30.554-68.11-68.11-68.11h-202.04c-37.556 0-68.11 30.554-68.11 68.11v121.867c-5.358-1.359-10.965-2.087-16.74-2.087-37.556 0-68.11 30.554-68.11 68.11 0 29.627 18.83 55.389 46.47 64.583v33.457c0 4.143 3.358 7.5 7.5 7.5s7.5-3.357 7.5-7.5v-30.258c2.203.214 4.419.327 6.64.327 9.469 0 18.636-1.908 27.247-5.671 3.796-1.658 5.528-6.079 3.87-9.875s-6.08-5.531-9.875-3.869c-6.705 2.93-13.852 4.415-21.241 4.415-4.129 0-8.238-.48-12.216-1.415-.062-.017-.117-.045-.18-.06-23.973-5.729-40.715-26.962-40.715-51.634 0-29.285 23.825-53.11 53.11-53.11s53.11 23.825 53.11 53.11v206.65h-26.85c-18.141 0-32.9-14.759-32.9-32.9v-40.51c0-4.143-3.358-7.5-7.5-7.5s-7.5 3.357-7.5 7.5v40.51c0 26.412 21.488 47.9 47.9 47.9h9.677v9.677c0 13.604 11.068 24.673 24.673 24.673s24.673-11.068 24.673-24.673v-9.673h201.174v9.673c0 13.604 11.068 24.673 24.673 24.673s24.673-11.068 24.673-24.673v-9.677h9.678c26.412 0 47.899-21.488 47.899-47.9v-40.51c0-4.143-3.357-7.5-7.5-7.5s-7.5 3.357-7.5 7.5v40.51c0 18.142-14.759 32.9-32.899 32.9h-26.851v-206.65c0-29.285 23.825-53.11 53.11-53.11s53.11 23.825 53.11 53.11c0 24.672-16.742 45.905-40.714 51.635-.063.015-.119.043-.181.06-3.979.935-8.088 1.415-12.216 1.415-7.39 0-14.536-1.485-21.241-4.415-3.794-1.661-8.216.072-9.875 3.869-1.659 3.795.073 8.217 3.869 9.875 8.61 3.763 17.777 5.671 27.247 5.671 2.22 0 4.437-.114 6.64-.327v30.258c0 4.143 3.357 7.5 7.5 7.5s7.5-3.357 7.5-7.5v-33.457c27.641-9.194 46.471-34.956 46.471-64.583 0-37.558-30.553-68.111-68.11-68.111zm-303.63 274.764v-32.141h235.52v32.141zm0-94.281v-32.142h235.52v32.142zm235.52 15v32.141h-235.52v-32.141zm-212.715-107.751h189.91c12.574 0 22.805 10.23 22.805 22.805v22.805h-235.52v-22.824c.01-12.566 10.236-22.786 22.805-22.786zm-20.633 211.705c0 5.334-4.339 9.673-9.673 9.673s-9.673-4.339-9.673-9.673v-9.677l19.346.004zm250.52-9.677v9.677c0 5.334-4.339 9.673-9.673 9.673s-9.673-4.339-9.673-9.673v-9.673z"/></g></g></svg>